<?xml version="1.0" encoding="UTF-8" standalone="no"?>
<!-- Created with Inkscape (http://www.inkscape.org/) -->

<svg
   xmlns:dc="http://purl.org/dc/elements/1.1/"
   xmlns:cc="http://creativecommons.org/ns#"
   xmlns:rdf="http://www.w3.org/1999/02/22-rdf-syntax-ns#"
   xmlns:svg="http://www.w3.org/2000/svg"
   xmlns="http://www.w3.org/2000/svg"
   xmlns:sodipodi="http://sodipodi.sourceforge.net/DTD/sodipodi-0.dtd"
   xmlns:inkscape="http://www.inkscape.org/namespaces/inkscape"
   width="499.99997"
   height="500"
   id="svg2"
   version="1.1"
   inkscape:version="0.48.1 r9760"
   sodipodi:docname="New document 1">
  <defs
     id="defs4" />
  <sodipodi:namedview
     id="base"
     pagecolor="#ffffff"
     bordercolor="#666666"
     borderopacity="1.0"
     inkscape:pageopacity="0.0"
     inkscape:pageshadow="2"
     inkscape:zoom="0.7"
     inkscape:cx="141.25449"
     inkscape:cy="371.42858"
     inkscape:document-units="px"
     inkscape:current-layer="layer1"
     showgrid="false"
     showguides="true"
     inkscape:guide-bbox="true"
     fit-margin-top="0"
     fit-margin-left="0"
     fit-margin-right="0"
     fit-margin-bottom="0"
     inkscape:window-width="1273"
     inkscape:window-height="873"
     inkscape:window-x="461"
     inkscape:window-y="220"
     inkscape:window-maximized="0">
    <sodipodi:guide
       orientation="1,0"
       position="250.00002,474.28573"
       id="guide3802" />
    <sodipodi:guide
       orientation="0,1"
       position="-151.42855,250.00001"
       id="guide3804" />
  </sodipodi:namedview>
  <metadata
     id="metadata7">
    <rdf:RDF>
      <cc:Work
         rdf:about="">
        <dc:format>image/svg+xml</dc:format>
        <dc:type
           rdf:resource="http://purl.org/dc/dcmitype/StillImage" />
        <dc:title></dc:title>
      </cc:Work>
    </rdf:RDF>
  </metadata>
  <g
     inkscape:label="Layer 1"
     inkscape:groupmode="layer"
     id="layer1"
     transform="translate(-131.42855,-518.07647)">
    <path
       sodipodi:type="arc"
       style="fill:#a0a0a0;fill-opacity:1;stroke-width:0;stroke-miterlimit:4;stroke-dasharray:none"
       id="path2985"
       sodipodi:cx="421.42856"
       sodipodi:cy="606.64789"
       sodipodi:rx="221.42857"
       sodipodi:ry="225.71428"
       d="m 642.85713,606.64789 a 221.42857,225.71428 0 1 1 -442.85715,0 221.42857,225.71428 0 1 1 442.85715,0 z"
       transform="matrix(1.0773208,0,0,1.0568654,-72.585199,128.38169)" />
    <path
       style="fill:#ffffff;fill-opacity:1;stroke:none"
       d="m 380.747,615.23157 c -106.16764,0 -197.41684,63.57395 -237.40372,154.56735 39.98688,90.99344 131.23608,154.56739 237.40372,154.56739 106.16764,0 197.41685,-63.57395 237.40373,-154.56739 C 578.16385,678.80552 486.91464,615.23157 380.747,615.23157 z"
       id="path2985-4"
       inkscape:connector-curvature="0" />
    <path
       sodipodi:type="arc"
       style="fill:#4c4c4c;fill-opacity:1;stroke:none"
       id="path3792"
       sodipodi:cx="374.28571"
       sodipodi:cy="745.2193"
       sodipodi:rx="122.85714"
       sodipodi:ry="120"
       d="m 497.14285,745.2193 a 122.85714,120 0 1 1 -245.71428,0 122.85714,120 0 1 1 245.71428,0 z"
       transform="matrix(1.2092589,0,0,1.2092589,-70.949344,-131.43657)" />
    <path
       sodipodi:type="arc"
       style="fill:#000000;fill-opacity:1;stroke:none"
       id="path3800"
       sodipodi:cx="396.42856"
       sodipodi:cy="765.2193"
       sodipodi:rx="80.714287"
       sodipodi:ry="80"
       d="m 477.14285,765.2193 a 80.714287,80 0 1 1 -161.42858,0 80.714287,80 0 1 1 161.42858,0 z"
       transform="matrix(0.96602048,0,0,0.96442239,-1.5295473,31.532264)" />
    <path
       sodipodi:type="arc"
       style="fill:#ffffff;fill-opacity:0.76724135;stroke:none"
       id="path3798"
       sodipodi:cx="317.14285"
       sodipodi:cy="715.2193"
       sodipodi:rx="31.428572"
       sodipodi:ry="24.285715"
       d="m 348.57142,715.2193 a 31.428572,24.285715 0 1 1 -62.85714,0 31.428572,24.285715 0 1 1 62.85714,0 z"
       transform="matrix(0.75902148,0,0,0.98226304,86.048399,31.688019)" />
  </g>
</svg>
