<?xml version="1.0" encoding="UTF-8" standalone="no"?>
<!-- Created with Inkscape (http://www.inkscape.org/) -->

<svg
   xmlns:dc="http://purl.org/dc/elements/1.1/"
   xmlns:cc="http://creativecommons.org/ns#"
   xmlns:rdf="http://www.w3.org/1999/02/22-rdf-syntax-ns#"
   xmlns:svg="http://www.w3.org/2000/svg"
   xmlns="http://www.w3.org/2000/svg"
   xmlns:xlink="http://www.w3.org/1999/xlink"
   xmlns:sodipodi="http://sodipodi.sourceforge.net/DTD/sodipodi-0.dtd"
   xmlns:inkscape="http://www.inkscape.org/namespaces/inkscape"
   width="96"
   height="96"
   id="svg2"
   sodipodi:version="0.32"
   inkscape:version="0.48.1 r9760"
   sodipodi:docname="DOP_cgfx_physbamsolver.svg"
   version="1.0">
  <defs
     id="defs4" />
  <sodipodi:namedview
     id="base"
     pagecolor="#ffffff"
     bordercolor="#666666"
     borderopacity="1.0"
     inkscape:pageopacity="0.0"
     inkscape:pageshadow="2"
     inkscape:zoom="11.866607"
     inkscape:cx="38.576293"
     inkscape:cy="42.778194"
     inkscape:document-units="px"
     inkscape:current-layer="layer1"
     inkscape:window-width="2560"
     inkscape:window-height="1363"
     inkscape:window-x="0"
     inkscape:window-y="24"
     objecttolerance="50"
     inkscape:object-bbox="false"
     inkscape:object-points="false"
     inkscape:object-nodes="false"
     inkscape:object-paths="false"
     inkscape:grid-bbox="false"
     inkscape:guide-bbox="false"
     height="128px"
     width="128px"
     showgrid="false"
     fit-margin-top="0"
     fit-margin-left="0"
     fit-margin-right="0"
     fit-margin-bottom="0"
     inkscape:window-maximized="1" />
  <metadata
     id="metadata7">
    <rdf:RDF>
      <cc:Work
         rdf:about="">
        <dc:format>image/svg+xml</dc:format>
        <dc:type
           rdf:resource="http://purl.org/dc/dcmitype/StillImage" />
        <dc:title />
        <dc:date>11/09/2006</dc:date>
        <dc:creator>
          <cc:Agent>
            <dc:title>h0us3s</dc:title>
          </cc:Agent>
        </dc:creator>
        <dc:language>es</dc:language>
        <dc:subject>
          <rdf:Bag>
            <rdf:li>Inkscape</rdf:li>
            <rdf:li>Sign Hazard</rdf:li>
            <rdf:li>Warning</rdf:li>
          </rdf:Bag>
        </dc:subject>
        <cc:license
           rdf:resource="http://web.resource.org/cc/PublicDomain" />
      </cc:Work>
      <cc:License
         rdf:about="http://web.resource.org/cc/PublicDomain">
        <cc:permits
           rdf:resource="http://web.resource.org/cc/Reproduction" />
        <cc:permits
           rdf:resource="http://web.resource.org/cc/Distribution" />
        <cc:permits
           rdf:resource="http://web.resource.org/cc/DerivativeWorks" />
      </cc:License>
    </rdf:RDF>
  </metadata>
  <g
     inkscape:groupmode="layer"
     id="layer2"
     inkscape:label="1"
     style="display:inline"
     transform="translate(-16.148048,-3.0076132)" />
  <g
     inkscape:label="Capa 1"
     inkscape:groupmode="layer"
     id="layer1"
     style="display:inline"
     transform="translate(-16.148048,-3.0076132)">
    <g
       id="g3141"
       transform="translate(80.72047,0)" />
    <path
       inkscape:href="#path3422"
       sodipodi:type="inkscape:offset"
       inkscape:radius="0"
       inkscape:original="M 602.84375 430.03125 C 601.57099 430.22839 600.45214 430.98062 599.8125 432.09375 L 564.1875 493.8125 C 563.44278 495.10948 563.4307 496.72518 564.1875 498.03125 C 564.94459 499.33791 566.35217 500.15742 567.875 500.15625 L 639.125 500.15625 C 640.64787 500.15742 642.0554 499.33783 642.8125 498.03125 C 643.56932 496.72517 643.55721 495.10947 642.8125 493.8125 L 607.1875 432.09375 C 606.31182 430.56876 604.57693 429.75973 602.84375 430.03125 z "
       xlink:href="#path3422"
       style="color:#000000;fill:#fff000;fill-opacity:1;fill-rule:nonzero;stroke:none;stroke-width:9.14700031;marker:none;visibility:visible;display:inline;overflow:visible"
       id="path2283"
       d="m 602.84375,430.03125 c -1.27276,0.19714 -2.39161,0.94937 -3.03125,2.0625 l -35.625,61.71875 c -0.74472,1.29698 -0.7568,2.91268 0,4.21875 0.75709,1.30666 2.16467,2.12617 3.6875,2.125 l 71.25,0 c 1.52287,0.001 2.9304,-0.81842 3.6875,-2.125 0.75682,-1.30608 0.74471,-2.92178 0,-4.21875 l -35.625,-61.71875 c -0.87568,-1.52499 -2.61057,-2.33402 -4.34375,-2.0625 z"
       transform="matrix(0.738729,0,0,0.738729,168.6073,57.12999)" />
    <path
       style="fill:#ffe200;fill-opacity:1;fill-rule:evenodd;stroke:#000000;stroke-width:0;stroke-linecap:butt;stroke-linejoin:miter;stroke-miterlimit:4;stroke-opacity:1"
       d="M 63.699922,12.758555 64.891672,12.520203 108.7484,89.031131 20.081543,88.792779 z"
       id="rect3854"
       inkscape:connector-curvature="0"
       sodipodi:nodetypes="ccccc" />
    <path
       inkscape:connector-curvature="0"
       style="color:#000000;fill:#000000;fill-opacity:1;fill-rule:nonzero;stroke:none;stroke-width:9.14700031;marker:none;visibility:visible;display:inline;overflow:visible"
       d="m 63.78739,8.635735 c -0.865079,0.13396 -1.601672,0.655452 -2.01875,1.38125 l -45.05,78.040625 c -0.493374,0.859299 -0.49487,1.961596 0,2.815625 0.503047,0.868156 1.431859,1.43514 2.44375,1.434375 l 90.1,0 c 1.01186,7.65e-4 1.94069,-0.566202 2.44375,-1.434375 0.49484,-0.854012 0.49339,-1.956326 0,-2.815625 l -45.05,-78.040625 C 66.0778,9.009837 64.959336,8.452135 63.78739,8.635735 z m 0.425,8.978125 38.25,67.3625 -76.553125,0 38.303125,-67.3625 z"
       id="path2285" />
    <g
       id="g5806"
       transform="matrix(0.7528008,0,0,0.7528008,720.95299,101.51515)">
      <path
         sodipodi:nodetypes="cccccccccccccccccccccccccccccccccccccccccccccccc"
         id="path5700"
         d="m -865.7914,-104.21454 -24,58.706683 28.0625,-51.086357 -4.0625,-7.620326 z m -19.75,11.144183 -6.59375,12.59375 -1.75,31.65625 8.34375,-44.25 z m 28.875,7.53125 -21.6875,28.75 23.75,-25.21875 -2.0625,-3.53125 z m 5.5,9.3125 -35.53125,34.96875 39,-29.125 -3.46875,-5.84375 z m -50.28125,11.6875 -2.53125,3.6875 6.03125,10.6875 c 10e-6,-0.776572 -3.5,-14.375 -3.5,-14.375 z m 57.59375,0.625 -31.96875,18.78125 34.21875,-14.9375 -2.25,-3.84375 z m -61.6875,5.1875 -2.71875,5.0625 6.21875,6 -3.5,-11.0625 z m 69.6875,8.34375 -45.03125,10.5 47.625,-6.125 -2.59375,-4.375 z m 6.21875,11.09375 -37.84375,1.53125 40,1.5625 -2.15625,-3.09375 z m -52.59375,3.875 59.71875,7.5625 -2.6875,-4.53125 -57.03125,-3.03125 z m -1.75,6.96875 33.875,8.5625 10.59375,0 -44.46875,-8.5625 z m -5.625,0.78125 c 1.60168,0.533893 8.60439,4.690544 13.75,7.78125 l 9.0625,0 -22.8125,-7.78125 z"
         style="fill:#000000;fill-opacity:1;fill-rule:evenodd;stroke:none"
         inkscape:connector-curvature="0" />
      <path
         id="path5756"
         d="m -881.6042,-83.117313 c 0,-0.04576 0,-0.09152 0,-0.137279 0,-0.494969 0.54912,-0.823679 0.82368,-1.235518 0.44912,-0.673683 0.65864,-1.482319 1.23552,-2.059195 0.76243,-0.762427 1.53855,-0.74792 2.33375,-0.549119 0.62369,0.155921 0.54912,1.343164 0.54912,1.921916 0,1.209603 -1.39654,1.699484 -2.05919,2.196475 -0.79342,0.59506 -0.72661,3.05203 -1.09824,3.981112 -0.38239,0.955978 -1.29411,1.248908 -1.92192,0.411839 -0.71951,-0.959357 -1.0474,-1.945658 -1.64735,-2.745594 -0.77033,-1.027102 0.52906,-1.225491 1.09823,-1.510077 0.22041,-0.110205 0.4576,-0.18304 0.6864,-0.27456 z"
         style="fill:#000000;fill-opacity:1;fill-rule:evenodd;stroke:#000000;stroke-width:1px;stroke-linecap:butt;stroke-linejoin:miter;stroke-opacity:1"
         inkscape:connector-curvature="0" />
      <path
         id="path5758"
         d="m -865.13063,-82.019075 c 0.86339,-0.431698 -1.91757,0.274559 -2.88288,0.274559 -1.07665,0 -0.1697,2.131635 0,2.471035 0.75533,1.510645 1.87503,-0.187574 2.33376,1.647357 0.37024,1.480956 0.22514,1.478502 1.64736,0.411839 0.50526,-0.378951 0.71628,-1.856307 1.09823,-2.333755 0.77694,-0.971168 0.90912,-1.449107 1.3728,-2.608315 0.3864,-0.965996 0.30277,-1.207303 -0.27456,-1.784636 -0.72127,-0.721273 -1.99905,0.651967 -2.33375,1.098238 -0.36392,0.485217 -0.29601,0.424705 -0.96096,0.823678 z"
         style="fill:#000000;fill-opacity:1;fill-rule:evenodd;stroke:#000000;stroke-width:1px;stroke-linecap:butt;stroke-linejoin:miter;stroke-opacity:1"
         inkscape:connector-curvature="0" />
      <path
         id="path5760"
         d="m -859.63944,-50.856581 c -0.0924,0.123197 1.41395,-0.868287 2.33375,-1.098238 1.03321,-0.258303 1.7604,0.117887 2.47104,0.686399 0.79629,0.637032 0.50481,2.094778 0.41184,2.745594 -0.10607,0.742481 -2.32622,0.413724 -2.88288,0.274559 -0.18304,-0.04576 -0.36608,-0.09152 -0.54912,-0.137279 -1.11183,-0.277959 -2.40217,0.17171 -3.29471,-0.27456 -0.95974,-0.479871 0.16014,-1.670221 0.41184,-1.921916 0.17681,-0.176807 1.00343,-0.255598 1.09824,-0.274559 z"
         style="fill:#000000;fill-opacity:1;fill-rule:evenodd;stroke:#000000;stroke-width:1px;stroke-linecap:butt;stroke-linejoin:miter;stroke-opacity:1"
         inkscape:connector-curvature="0" />
      <path
         id="path5762"
         d="m -892.31201,-65.820069 c 0.0214,-0.02143 -2.01272,-0.709639 -3.98112,0.274559 -1.07424,0.537121 -1.71565,1.510759 -1.09823,2.745594 0.70556,1.411134 0.0689,1.715624 -0.54912,2.745594 -0.53235,0.887245 1.09499,1.784637 1.78463,1.784637 0.78787,0 1.70738,0.647767 2.33376,0.960958 1.25037,0.625184 0.96096,-1.77007 0.96096,-2.333756 0,-0.913094 -0.0696,-1.9183 0.13728,-2.745594 0.1505,-0.602002 0.0248,-1.472129 0.13728,-1.921916 0.16572,-0.662884 0.27456,-0.699413 0.27456,-1.510076 z"
         style="fill:#000000;fill-opacity:1;fill-rule:evenodd;stroke:#000000;stroke-width:1px;stroke-linecap:butt;stroke-linejoin:miter;stroke-opacity:1"
         inkscape:connector-curvature="0" />
      <path
         id="path5764"
         d="m -889.0173,-36.854051 c 0.004,-0.01647 -1.99579,-0.274559 -2.60832,-0.274559 -0.72241,0 -0.68639,1.835006 -0.68639,2.333755 0,0.599646 -0.99707,0.695424 -1.51008,0.823678 -0.79058,0.197645 1.61814,0.960958 1.92192,0.960958 1.4892,0 2.3843,-0.05055 3.29471,-0.960958 0.61084,-0.610841 0.54912,-1.143074 0.54912,-2.059196 0,-0.82629 -0.0823,-0.823678 -0.96096,-0.823678 z"
         style="fill:#000000;fill-opacity:1;fill-rule:evenodd;stroke:#000000;stroke-width:1px;stroke-linecap:butt;stroke-linejoin:miter;stroke-opacity:1"
         inkscape:connector-curvature="0" />
      <path
         id="path5766"
         d="m -858.12937,-29.440947 c 0,-1.510833 -5.23502,-1.098237 -6.31486,-1.098237 -1.68872,0 -1.26241,1.054647 -0.27456,1.647356 0.807,0.4842 2.81294,0.123294 3.56927,0.27456 1.20924,0.241848 2.20886,0.827807 3.43199,1.235517 0.99275,0.330914 1.86178,-0.1713 2.0592,-0.960958 0.0892,-0.356632 -0.96496,-1.239522 -1.23552,-1.510077 -0.81186,-0.811862 -1.01752,-0.355279 -1.23552,-0.137279"
         style="fill:#000000;fill-opacity:1;fill-rule:evenodd;stroke:#000000;stroke-width:1px;stroke-linecap:butt;stroke-linejoin:miter;stroke-opacity:1"
         inkscape:connector-curvature="0" />
      <path
         id="path5768"
         d="m -875.97573,-63.898153 c -1.06832,-1.06832 -2.1698,0.925395 -2.60831,1.510076 -0.66271,0.883608 1.83925,0.86501 2.19647,0.686399 0.91261,-0.456305 0.71518,-1.438121 0.41184,-2.196475 z"
         style="fill:#000000;fill-opacity:1;fill-rule:evenodd;stroke:#000000;stroke-width:1px;stroke-linecap:butt;stroke-linejoin:miter;stroke-opacity:1"
         inkscape:connector-curvature="0" />
      <path
         sodipodi:nodetypes="csssssssssssc"
         id="path5770"
         d="m -902.88255,-42.07068 c -12.44295,9.238218 -1.21509,22.440895 10.98238,14.963488 0.82862,-0.507967 -0.42878,-1.715701 -0.6864,-2.059195 -0.57369,-0.764918 -0.91412,-1.017888 -1.78464,-1.235518 -1.24824,-0.312059 -1.62938,-0.477229 -1.92192,-1.647356 -0.22958,-0.918352 0.15084,-1.537194 0.41184,-2.059196 0.46476,-0.929506 -0.27693,-0.789951 -0.96095,-0.960958 -0.83719,-0.209297 -1.49773,0.237152 -2.19648,0.411839 -1.30763,0.326909 -1.13112,-0.895202 -0.96096,-1.235517 0.47179,-0.943584 1.06935,-0.693563 0.82368,-1.921916 -0.10052,-0.502615 -1.78564,-0.446411 -2.19647,-0.549119 -0.8287,-0.207174 -0.95229,-1.749962 -1.09824,-2.333755 -0.18728,-0.749121 0.13982,-0.453354 -0.41184,-1.372797 z"
         style="fill:#000000;fill-opacity:1;fill-rule:evenodd;stroke:#000000;stroke-width:1px;stroke-linecap:butt;stroke-linejoin:miter;stroke-opacity:1"
         inkscape:connector-curvature="0" />
    </g>
  </g>
</svg>
